<?xml version="1.0" encoding="UTF-8" standalone="no"?>
<!-- Created with Inkscape (http://www.inkscape.org/) -->

<svg
   xmlns:dc="http://purl.org/dc/elements/1.1/"
   xmlns:cc="http://creativecommons.org/ns#"
   xmlns:rdf="http://www.w3.org/1999/02/22-rdf-syntax-ns#"
   xmlns:svg="http://www.w3.org/2000/svg"
   xmlns="http://www.w3.org/2000/svg"
   xmlns:sodipodi="http://sodipodi.sourceforge.net/DTD/sodipodi-0.dtd"
   xmlns:inkscape="http://www.inkscape.org/namespaces/inkscape"
   width="30mm"
   height="30mm"
   viewBox="0 0 30 30"
   version="1.1"
   id="svg8"
   inkscape:version="0.92.2 (5c3e80d, 2017-08-06)"
   sodipodi:docname="icon.svg">
  <defs
     id="defs2" />
  <sodipodi:namedview
     id="base"
     pagecolor="#ffffff"
     bordercolor="#666666"
     borderopacity="1.0"
     inkscape:pageopacity="0.0"
     inkscape:pageshadow="2"
     inkscape:zoom="2.8"
     inkscape:cx="161.42857"
     inkscape:cy="55.51845"
     inkscape:document-units="mm"
     inkscape:current-layer="layer1"
     showgrid="false"
     inkscape:window-width="1920"
     inkscape:window-height="986"
     inkscape:window-x="-11"
     inkscape:window-y="-11"
     inkscape:window-maximized="1" />
  <metadata
     id="metadata5">
    <rdf:RDF>
      <cc:Work
         rdf:about="">
        <dc:format>image/svg+xml</dc:format>
        <dc:type
           rdf:resource="http://purl.org/dc/dcmitype/StillImage" />
        <dc:title />
      </cc:Work>
    </rdf:RDF>
  </metadata>
  <g
     inkscape:label="Layer 1"
     inkscape:groupmode="layer"
     id="layer1"
     transform="translate(0,-267)">
    <g
       aria-label=""
       transform="scale(0.92326836,1.0831087)"
       style="font-style:normal;font-weight:normal;font-size:28.74648094px;line-height:1.25;font-family:sans-serif;letter-spacing:0px;word-spacing:0px;fill:#507299;fill-opacity:1;stroke:none;stroke-width:0.71866196"
       id="text12">
      <path
         d="m 31.608842,252.842 q 0.368956,1.02666 -2.406235,4.71622 -0.384997,0.51333 -1.042701,1.36353 -0.641663,0.81812 -0.882286,1.155 -0.240624,0.33687 -0.497289,0.80207 -0.240623,0.44917 -0.192499,0.67375 0.06417,0.20854 0.208541,0.54541 0.160415,0.33687 0.529371,0.68979 0.368956,0.35291 0.914369,0.8502 0.06417,0.0321 0.08021,0.0642 2.261861,2.10144 3.063939,3.54518 0.04812,0.0802 0.09625,0.20854 0.06417,0.1123 0.112291,0.41708 0.06417,0.30479 0,0.54542 -0.06417,0.24062 -0.401039,0.44916 -0.336873,0.1925 -0.946452,0.1925 l -4.10664,0.0642 q -0.384998,0.0802 -0.898328,-0.0802 -0.51333,-0.16042 -0.834161,-0.35292 l -0.320831,-0.19249 q -0.481247,-0.33688 -1.12291,-1.02666 -0.641662,-0.68979 -1.106868,-1.2352 -0.449163,-0.56146 -0.978535,-0.93042 -0.51333,-0.38499 -0.898328,-0.25666 -0.04812,0.016 -0.128332,0.0642 -0.08021,0.0321 -0.272707,0.22458 -0.192498,0.1925 -0.352914,0.48124 -0.144374,0.27271 -0.272707,0.83417 -0.112291,0.54541 -0.09625,1.2352 0,0.24062 -0.06417,0.44916 -0.04813,0.1925 -0.112291,0.28875 l -0.06417,0.0802 q -0.288749,0.30479 -0.850203,0.35291 h -1.84478 q -1.138951,0.0642 -2.342068,-0.25666 -1.203117,-0.33688 -2.117487,-0.85021 -0.898327,-0.52937 -1.6522806,-1.05874 Q 9.0704455,266.349 8.685448,265.964 l -0.401039,-0.385 q -0.1604157,-0.16041 -0.4491638,-0.48125 -0.2727066,-0.32083 -1.138951,-1.45978 -0.8662444,-1.13895 -1.7004057,-2.42227 -0.8341612,-1.28333 -1.9731122,-3.38477 -1.1229094,-2.10145 -2.08540321,-4.36331 -0.0962494,-0.25666 -0.0962494,-0.43312 0,-0.17646 0.0481247,-0.25667 l 0.0641663,-0.0962 q 0.24062344,-0.30479 0.91436904,-0.30479 l 4.3953883,-0.0321 q 0.1924988,0.0321 0.368956,0.11229 0.1764572,0.0642 0.256665,0.12834 l 0.080208,0.0481 q 0.256665,0.17646 0.3849975,0.51333 0.3208313,0.80208 0.7379119,1.66832 0.4170806,0.85021 0.6577041,1.29937 l 0.256665,0.4652 q 0.4652053,0.9625 0.8983275,1.66833 0.4331222,0.70583 0.7699952,1.10686 0.352914,0.385 0.673745,0.60958 0.320832,0.22459 0.545414,0.22459 0.224582,0 0.433122,-0.0802 0.03208,-0.016 0.08021,-0.0802 0.04812,-0.0642 0.192498,-0.35291 0.144374,-0.28875 0.208541,-0.75396 0.08021,-0.4652 0.160415,-1.29936 0.08021,-0.83417 0,-2.0052 -0.03208,-0.64166 -0.144374,-1.17103 -0.112291,-0.52938 -0.224582,-0.73792 l -0.09625,-0.19249 q -0.401039,-0.54542 -1.363533,-0.68979 -0.20854,-0.0321 0.08021,-0.385 0.256665,-0.30479 0.609579,-0.48125 0.850203,-0.41708 3.833934,-0.38499 1.315408,0.016 2.165611,0.20854 0.320831,0.0802 0.529372,0.22458 0.224581,0.12833 0.336872,0.385 0.112291,0.24062 0.160416,0.51333 0.06417,0.25666 0.06417,0.72187 0,0.4652 -0.01604,0.88228 -0.01604,0.41708 -0.04812,1.13895 -0.01604,0.70583 -0.01604,1.31541 0,0.17646 -0.01604,0.67375 -0.01604,0.49729 -0.01604,0.76999 0.01604,0.27271 0.06417,0.65771 0.04812,0.36895 0.176457,0.62562 0.144374,0.24062 0.368956,0.385 0.128332,0.0321 0.272706,0.0642 0.144374,0.0321 0.417081,-0.17646 0.272706,-0.20854 0.609579,-0.54541 0.336873,-0.35291 0.834162,-1.07478 0.497288,-0.73792 1.090826,-1.73249 0.962494,-1.66833 1.716447,-3.60935 0.06417,-0.16042 0.160416,-0.27271 0.09625,-0.12833 0.176457,-0.17646 l 0.06417,-0.0481 q 0.03208,-0.016 0.08021,-0.0321 0.04812,-0.0321 0.20854,-0.0481 0.160416,-0.0321 0.320832,-0.016 l 4.61997,-0.0321 q 0.625621,-0.0802 1.02666,0.0481 0.401039,0.11229 0.497288,0.25666 z"
         style="fill:#507299;fill-opacity:1;stroke-width:0.71866196"
         id="path24" />
    </g>
  </g>
</svg>
